<mxfile host="app.diagrams.net" modified="2022-03-07T12:20:22.322Z" agent="5.0 (Windows)" etag="IgZDf5aVldTPnzEoJHLP" version="16.6.6" type="github">
  <diagram id="kmOO4K7gCfmuZEOy1T-Y" name="Page-1">
    <mxGraphModel dx="1422" dy="752" grid="1" gridSize="10" guides="1" tooltips="1" connect="1" arrows="1" fold="1" page="1" pageScale="1" pageWidth="827" pageHeight="1169" math="0" shadow="0">
      <root>
        <mxCell id="0" />
        <mxCell id="1" parent="0" />
        <mxCell id="HuoqXFGGEdhnXORCjlyn-1" value="activities.yml" style="shape=document;whiteSpace=wrap;html=1;boundedLbl=1;strokeColor=#007FFF;shadow=1;strokeWidth=3;fontColor=#0000FF;" parent="1" vertex="1">
          <mxGeometry x="30" y="40" width="120" height="80" as="geometry" />
        </mxCell>
        <mxCell id="HuoqXFGGEdhnXORCjlyn-2" value="release.yml" style="shape=document;whiteSpace=wrap;html=1;boundedLbl=1;strokeColor=#007FFF;shadow=1;strokeWidth=3;fontColor=#0000FF;" parent="1" vertex="1">
          <mxGeometry x="30" y="140" width="120" height="80" as="geometry" />
        </mxCell>
        <mxCell id="HuoqXFGGEdhnXORCjlyn-3" value="model.yml" style="shape=document;whiteSpace=wrap;html=1;boundedLbl=1;strokeColor=#007FFF;shadow=1;strokeWidth=3;fontColor=#0000FF;" parent="1" vertex="1">
          <mxGeometry x="340" y="80" width="120" height="80" as="geometry" />
        </mxCell>
        <mxCell id="HuoqXFGGEdhnXORCjlyn-4" value="&lt;div&gt;Maven-Plugin&lt;/div&gt;&lt;div&gt;&quot;Concat&quot;&lt;br&gt;&lt;/div&gt;" style="whiteSpace=wrap;html=1;aspect=fixed;strokeColor=#007FFF;shadow=1;strokeWidth=3;fontColor=#0000FF;" parent="1" vertex="1">
          <mxGeometry x="200" y="80" width="90" height="90" as="geometry" />
        </mxCell>
        <mxCell id="HuoqXFGGEdhnXORCjlyn-5" value="&lt;div&gt;Maven-Plugin&lt;/div&gt;&lt;div&gt;&quot;Freemarker&quot;&lt;br&gt;&lt;/div&gt;" style="whiteSpace=wrap;html=1;aspect=fixed;strokeColor=#007FFF;shadow=1;strokeWidth=3;fontColor=#0000FF;" parent="1" vertex="1">
          <mxGeometry x="510" y="130" width="90" height="90" as="geometry" />
        </mxCell>
        <mxCell id="HuoqXFGGEdhnXORCjlyn-6" value="deliveryChecklist.csv" style="shape=document;whiteSpace=wrap;html=1;boundedLbl=1;strokeColor=#007FFF;shadow=1;strokeWidth=3;fontColor=#0000FF;" parent="1" vertex="1">
          <mxGeometry x="650" y="135" width="120" height="80" as="geometry" />
        </mxCell>
        <mxCell id="HuoqXFGGEdhnXORCjlyn-7" value="deliveryChecklist.ftl" style="shape=document;whiteSpace=wrap;html=1;boundedLbl=1;strokeColor=#007FFF;shadow=1;strokeWidth=3;fontColor=#0000FF;" parent="1" vertex="1">
          <mxGeometry x="340" y="200" width="120" height="80" as="geometry" />
        </mxCell>
        <mxCell id="HuoqXFGGEdhnXORCjlyn-8" value="" style="endArrow=classic;html=1;rounded=0;exitX=1;exitY=0.5;exitDx=0;exitDy=0;edgeStyle=orthogonalEdgeStyle;entryX=0;entryY=0.25;entryDx=0;entryDy=0;strokeColor=#007FFF;shadow=1;strokeWidth=3;fontColor=#0000FF;" parent="1" source="HuoqXFGGEdhnXORCjlyn-1" target="HuoqXFGGEdhnXORCjlyn-4" edge="1">
          <mxGeometry width="50" height="50" relative="1" as="geometry">
            <mxPoint x="340" y="330" as="sourcePoint" />
            <mxPoint x="390" y="280" as="targetPoint" />
          </mxGeometry>
        </mxCell>
        <mxCell id="HuoqXFGGEdhnXORCjlyn-9" value="" style="endArrow=classic;html=1;rounded=0;exitX=1;exitY=0.5;exitDx=0;exitDy=0;edgeStyle=orthogonalEdgeStyle;entryX=0;entryY=0.75;entryDx=0;entryDy=0;strokeColor=#007FFF;shadow=1;strokeWidth=3;fontColor=#0000FF;" parent="1" source="HuoqXFGGEdhnXORCjlyn-2" target="HuoqXFGGEdhnXORCjlyn-4" edge="1">
          <mxGeometry width="50" height="50" relative="1" as="geometry">
            <mxPoint x="160" y="90" as="sourcePoint" />
            <mxPoint x="210" y="112.5" as="targetPoint" />
          </mxGeometry>
        </mxCell>
        <mxCell id="HuoqXFGGEdhnXORCjlyn-10" value="" style="endArrow=classic;html=1;rounded=0;exitX=1;exitY=0.444;exitDx=0;exitDy=0;edgeStyle=orthogonalEdgeStyle;entryX=0;entryY=0.5;entryDx=0;entryDy=0;exitPerimeter=0;strokeColor=#007FFF;shadow=1;strokeWidth=3;fontColor=#0000FF;" parent="1" source="HuoqXFGGEdhnXORCjlyn-4" target="HuoqXFGGEdhnXORCjlyn-3" edge="1">
          <mxGeometry width="50" height="50" relative="1" as="geometry">
            <mxPoint x="170" y="100" as="sourcePoint" />
            <mxPoint x="220" y="122.5" as="targetPoint" />
          </mxGeometry>
        </mxCell>
        <mxCell id="HuoqXFGGEdhnXORCjlyn-11" value="" style="endArrow=classic;html=1;rounded=0;exitX=1;exitY=0.5;exitDx=0;exitDy=0;edgeStyle=orthogonalEdgeStyle;entryX=0;entryY=0.25;entryDx=0;entryDy=0;strokeColor=#007FFF;shadow=1;strokeWidth=3;fontColor=#0000FF;" parent="1" source="HuoqXFGGEdhnXORCjlyn-3" target="HuoqXFGGEdhnXORCjlyn-5" edge="1">
          <mxGeometry width="50" height="50" relative="1" as="geometry">
            <mxPoint x="180" y="110" as="sourcePoint" />
            <mxPoint x="230" y="132.5" as="targetPoint" />
          </mxGeometry>
        </mxCell>
        <mxCell id="HuoqXFGGEdhnXORCjlyn-12" value="" style="endArrow=classic;html=1;rounded=0;exitX=1;exitY=0.5;exitDx=0;exitDy=0;edgeStyle=orthogonalEdgeStyle;entryX=0;entryY=0.75;entryDx=0;entryDy=0;strokeColor=#007FFF;shadow=1;strokeWidth=3;fontColor=#0000FF;" parent="1" source="HuoqXFGGEdhnXORCjlyn-7" target="HuoqXFGGEdhnXORCjlyn-5" edge="1">
          <mxGeometry width="50" height="50" relative="1" as="geometry">
            <mxPoint x="190" y="120" as="sourcePoint" />
            <mxPoint x="240" y="142.5" as="targetPoint" />
          </mxGeometry>
        </mxCell>
        <mxCell id="HuoqXFGGEdhnXORCjlyn-14" value="" style="endArrow=classic;html=1;rounded=0;exitX=1;exitY=0.5;exitDx=0;exitDy=0;edgeStyle=orthogonalEdgeStyle;entryX=0;entryY=0.5;entryDx=0;entryDy=0;strokeColor=#007FFF;shadow=1;strokeWidth=3;fontColor=#0000FF;" parent="1" source="HuoqXFGGEdhnXORCjlyn-5" target="HuoqXFGGEdhnXORCjlyn-6" edge="1">
          <mxGeometry width="50" height="50" relative="1" as="geometry">
            <mxPoint x="200" y="130" as="sourcePoint" />
            <mxPoint x="250" y="152.5" as="targetPoint" />
          </mxGeometry>
        </mxCell>
      </root>
    </mxGraphModel>
  </diagram>
</mxfile>
